<?xml version="1.0" encoding="UTF-8" standalone="no"?>
<!-- Created with Inkscape (http://www.inkscape.org/) -->

<svg
   width="8.5in"
   height="11in"
   viewBox="0 0 215.9 279.4"
   version="1.1"
   id="svg1"
   xml:space="preserve"
   inkscape:version="1.3.2 (091e20e, 2023-11-25)"
   sodipodi:docname="55mm_grid.svg"
   inkscape:export-filename="55mm_grid.pdf"
   inkscape:export-xdpi="300"
   inkscape:export-ydpi="300"
   xmlns:inkscape="http://www.inkscape.org/namespaces/inkscape"
   xmlns:sodipodi="http://sodipodi.sourceforge.net/DTD/sodipodi-0.dtd"
   xmlns="http://www.w3.org/2000/svg"
   xmlns:svg="http://www.w3.org/2000/svg"><sodipodi:namedview
     id="namedview1"
     pagecolor="#ffffff"
     bordercolor="#999999"
     borderopacity="1"
     inkscape:showpageshadow="2"
     inkscape:pageopacity="0"
     inkscape:pagecheckerboard="0"
     inkscape:deskcolor="#d1d1d1"
     inkscape:document-units="mm"
     inkscape:zoom="0.48098706"
     inkscape:cx="-211.02439"
     inkscape:cy="490.65769"
     inkscape:window-width="2490"
     inkscape:window-height="1376"
     inkscape:window-x="70"
     inkscape:window-y="27"
     inkscape:window-maximized="1"
     inkscape:current-layer="layer1" /><defs
     id="defs1" /><g
     inkscape:label="Layer 1"
     inkscape:groupmode="layer"
     id="layer1"><g
       style="shape-rendering:crispEdges"
       id="g1"
       transform="matrix(9.1666663,0,0,9.1666663,14.386028,16.539723)"><rect
         x="0"
         y="0"
         width="6"
         height="6"
         fill="#000000"
         id="rect1" /><rect
         width="1"
         height="1"
         x="1"
         y="1"
         fill="#ffffff"
         id="rect2" /><rect
         width="1.5"
         height="1"
         x="3"
         y="1"
         fill="#ffffff"
         id="rect3" /><rect
         width="1"
         height="1"
         x="4"
         y="1"
         fill="#ffffff"
         id="rect4" /><rect
         width="1"
         height="1.5"
         x="4"
         y="1"
         fill="#ffffff"
         id="rect5" /><rect
         width="1"
         height="1"
         x="2"
         y="2"
         fill="#ffffff"
         id="rect6" /><rect
         width="1"
         height="1"
         x="4"
         y="2"
         fill="#ffffff"
         id="rect7" /><rect
         width="1"
         height="1.5"
         x="4"
         y="2"
         fill="#ffffff"
         id="rect8" /><rect
         width="1.5"
         height="1"
         x="3"
         y="3"
         fill="#ffffff"
         id="rect9" /><rect
         width="1"
         height="1.5"
         x="3"
         y="3"
         fill="#ffffff"
         id="rect10" /><rect
         width="1"
         height="1"
         x="4"
         y="3"
         fill="#ffffff"
         id="rect11" /><rect
         width="1"
         height="1"
         x="3"
         y="4"
         fill="#ffffff"
         id="rect12" /></g><g
       style="shape-rendering:crispEdges"
       id="g2"
       transform="matrix(9.1666663,0,0,9.1666663,79.386025,16.539723)"><rect
         x="0"
         y="0"
         width="6"
         height="6"
         fill="#000000"
         id="rect1-1" /><rect
         width="1.5"
         height="1"
         x="1"
         y="2"
         fill="#ffffff"
         id="rect2-8" /><rect
         width="1"
         height="1.5"
         x="1"
         y="2"
         fill="#ffffff"
         id="rect3-5" /><rect
         width="1.5"
         height="1"
         x="2"
         y="2"
         fill="#ffffff"
         id="rect4-9" /><rect
         width="1.5"
         height="1"
         x="3"
         y="2"
         fill="#ffffff"
         id="rect5-7" /><rect
         width="1"
         height="1"
         x="4"
         y="2"
         fill="#ffffff"
         id="rect6-5" /><rect
         width="1"
         height="1.5"
         x="4"
         y="2"
         fill="#ffffff"
         id="rect7-3" /><rect
         width="1"
         height="1"
         x="1"
         y="3"
         fill="#ffffff"
         id="rect8-8" /><rect
         width="1"
         height="1.5"
         x="1"
         y="3"
         fill="#ffffff"
         id="rect9-8" /><rect
         width="1"
         height="1"
         x="4"
         y="3"
         fill="#ffffff"
         id="rect10-3" /><rect
         width="1"
         height="1"
         x="1"
         y="4"
         fill="#ffffff"
         id="rect11-1" /><rect
         width="1"
         height="1"
         x="3"
         y="4"
         fill="#ffffff"
         id="rect12-8" /></g><g
       style="shape-rendering:crispEdges"
       id="g3"
       transform="matrix(9.1666663,0,0,9.1666663,144.38603,16.539723)"><rect
         x="0"
         y="0"
         width="6"
         height="6"
         fill="#000000"
         id="rect1-9" /><rect
         width="1.5"
         height="1"
         x="3"
         y="1"
         fill="#ffffff"
         id="rect2-6" /><rect
         width="1"
         height="1.5"
         x="3"
         y="1"
         fill="#ffffff"
         id="rect3-4" /><rect
         width="1"
         height="1"
         x="4"
         y="1"
         fill="#ffffff"
         id="rect4-3" /><rect
         width="1"
         height="1.5"
         x="4"
         y="1"
         fill="#ffffff"
         id="rect5-3" /><rect
         width="1.5"
         height="1"
         x="3"
         y="2"
         fill="#ffffff"
         id="rect6-3" /><rect
         width="1"
         height="1.5"
         x="3"
         y="2"
         fill="#ffffff"
         id="rect7-8" /><rect
         width="1"
         height="1"
         x="4"
         y="2"
         fill="#ffffff"
         id="rect8-6" /><rect
         width="1"
         height="1"
         x="3"
         y="3"
         fill="#ffffff"
         id="rect9-0" /><rect
         width="1.5"
         height="1"
         x="1"
         y="4"
         fill="#ffffff"
         id="rect10-4" /><rect
         width="1"
         height="1"
         x="2"
         y="4"
         fill="#ffffff"
         id="rect11-8" /><rect
         width="1"
         height="1"
         x="4"
         y="4"
         fill="#ffffff"
         id="rect12-88" /></g><g
       style="shape-rendering:crispEdges"
       id="g4"
       transform="matrix(9.1666663,0,0,9.1666663,14.386028,81.539721)"><rect
         x="0"
         y="0"
         width="6"
         height="6"
         fill="#000000"
         id="rect1-97" /><rect
         width="1"
         height="1"
         x="1"
         y="1"
         fill="#ffffff"
         id="rect2-7" /><rect
         width="1"
         height="1.5"
         x="1"
         y="1"
         fill="#ffffff"
         id="rect3-6" /><rect
         width="1"
         height="1"
         x="4"
         y="1"
         fill="#ffffff"
         id="rect4-4" /><rect
         width="1"
         height="1.5"
         x="4"
         y="1"
         fill="#ffffff"
         id="rect5-30" /><rect
         width="1"
         height="1"
         x="1"
         y="2"
         fill="#ffffff"
         id="rect6-30" /><rect
         width="1"
         height="1"
         x="4"
         y="2"
         fill="#ffffff"
         id="rect7-9" /><rect
         width="1"
         height="1"
         x="2"
         y="3"
         fill="#ffffff"
         id="rect8-2" /><rect
         width="1"
         height="1.5"
         x="2"
         y="3"
         fill="#ffffff"
         id="rect9-5" /><rect
         width="1.5"
         height="1"
         x="2"
         y="4"
         fill="#ffffff"
         id="rect10-40" /><rect
         width="1"
         height="1"
         x="3"
         y="4"
         fill="#ffffff"
         id="rect11-5" /></g><g
       style="shape-rendering:crispEdges"
       id="g5"
       transform="matrix(9.1666663,0,0,9.1666663,79.386025,81.539721)"><rect
         x="0"
         y="0"
         width="6"
         height="6"
         fill="#000000"
         id="rect1-94" /><rect
         width="1"
         height="1"
         x="2"
         y="1"
         fill="#ffffff"
         id="rect2-69" /><rect
         width="1"
         height="1.5"
         x="2"
         y="1"
         fill="#ffffff"
         id="rect3-2" /><rect
         width="1"
         height="1"
         x="4"
         y="1"
         fill="#ffffff"
         id="rect4-2" /><rect
         width="1"
         height="1"
         x="2"
         y="2"
         fill="#ffffff"
         id="rect5-4" /><rect
         width="1"
         height="1"
         x="1"
         y="3"
         fill="#ffffff"
         id="rect6-7" /><rect
         width="1"
         height="1.5"
         x="1"
         y="3"
         fill="#ffffff"
         id="rect7-7" /><rect
         width="1"
         height="1"
         x="4"
         y="3"
         fill="#ffffff"
         id="rect8-5" /><rect
         width="1.5"
         height="1"
         x="1"
         y="4"
         fill="#ffffff"
         id="rect9-4" /><rect
         width="1.5"
         height="1"
         x="2"
         y="4"
         fill="#ffffff"
         id="rect10-8" /><rect
         width="1"
         height="1"
         x="3"
         y="4"
         fill="#ffffff"
         id="rect11-12" /></g><g
       style="shape-rendering:crispEdges"
       id="g6"
       transform="matrix(9.1666663,0,0,9.1666663,144.38603,81.539721)"><rect
         x="0"
         y="0"
         width="6"
         height="6"
         fill="#000000"
         id="rect1-8" /><rect
         width="1.5"
         height="1"
         x="2"
         y="1"
         fill="#ffffff"
         id="rect2-9" /><rect
         width="1.5"
         height="1"
         x="3"
         y="1"
         fill="#ffffff"
         id="rect3-3" /><rect
         width="1"
         height="1"
         x="4"
         y="1"
         fill="#ffffff"
         id="rect4-6" /><rect
         width="1"
         height="1.5"
         x="4"
         y="1"
         fill="#ffffff"
         id="rect5-8" /><rect
         width="1"
         height="1"
         x="1"
         y="2"
         fill="#ffffff"
         id="rect6-0" /><rect
         width="1"
         height="1.5"
         x="1"
         y="2"
         fill="#ffffff"
         id="rect7-2" /><rect
         width="1"
         height="1"
         x="4"
         y="2"
         fill="#ffffff"
         id="rect8-1" /><rect
         width="1.5"
         height="1"
         x="1"
         y="3"
         fill="#ffffff"
         id="rect9-05" /><rect
         width="1"
         height="1.5"
         x="1"
         y="3"
         fill="#ffffff"
         id="rect10-1" /><rect
         width="1"
         height="1"
         x="2"
         y="3"
         fill="#ffffff"
         id="rect11-10" /><rect
         width="1"
         height="1.5"
         x="2"
         y="3"
         fill="#ffffff"
         id="rect12-85" /><rect
         width="1.5"
         height="1"
         x="1"
         y="4"
         fill="#ffffff"
         id="rect13" /><rect
         width="1"
         height="1"
         x="2"
         y="4"
         fill="#ffffff"
         id="rect14" /><rect
         width="1"
         height="1"
         x="4"
         y="4"
         fill="#ffffff"
         id="rect15" /></g><g
       style="shape-rendering:crispEdges"
       id="g7"
       transform="matrix(9.1666663,0,0,9.1666663,14.386028,146.53969)"><rect
         x="0"
         y="0"
         width="6"
         height="6"
         fill="#000000"
         id="rect1-0" /><rect
         width="1"
         height="1"
         x="1"
         y="1"
         fill="#ffffff"
         id="rect2-64" /><rect
         width="1"
         height="1.5"
         x="1"
         y="1"
         fill="#ffffff"
         id="rect3-62" /><rect
         width="1"
         height="1"
         x="4"
         y="1"
         fill="#ffffff"
         id="rect4-5" /><rect
         width="1.5"
         height="1"
         x="1"
         y="2"
         fill="#ffffff"
         id="rect5-86" /><rect
         width="1.5"
         height="1"
         x="2"
         y="2"
         fill="#ffffff"
         id="rect6-2" /><rect
         width="1"
         height="1"
         x="3"
         y="2"
         fill="#ffffff"
         id="rect7-84" /><rect
         width="1"
         height="1.5"
         x="3"
         y="2"
         fill="#ffffff"
         id="rect8-7" /><rect
         width="1"
         height="1"
         x="3"
         y="3"
         fill="#ffffff"
         id="rect9-2" /><rect
         width="1"
         height="1.5"
         x="3"
         y="3"
         fill="#ffffff"
         id="rect10-406" /><rect
         width="1.5"
         height="1"
         x="1"
         y="4"
         fill="#ffffff"
         id="rect11-2" /><rect
         width="1.5"
         height="1"
         x="2"
         y="4"
         fill="#ffffff"
         id="rect12-9" /><rect
         width="1"
         height="1"
         x="3"
         y="4"
         fill="#ffffff"
         id="rect13-9" /></g><g
       style="shape-rendering:crispEdges"
       id="g8"
       transform="matrix(9.1666663,0,0,9.1666663,79.386025,146.53969)"><rect
         x="0"
         y="0"
         width="6"
         height="6"
         fill="#000000"
         id="rect1-08" /><rect
         width="1.5"
         height="1"
         x="1"
         y="1"
         fill="#ffffff"
         id="rect2-1" /><rect
         width="1"
         height="1"
         x="2"
         y="1"
         fill="#ffffff"
         id="rect3-31" /><rect
         width="1"
         height="1.5"
         x="2"
         y="1"
         fill="#ffffff"
         id="rect4-1" /><rect
         width="1"
         height="1"
         x="2"
         y="2"
         fill="#ffffff"
         id="rect5-0" /><rect
         width="1"
         height="1.5"
         x="2"
         y="2"
         fill="#ffffff"
         id="rect6-34" /><rect
         width="1.5"
         height="1"
         x="1"
         y="3"
         fill="#ffffff"
         id="rect7-0" /><rect
         width="1.5"
         height="1"
         x="2"
         y="3"
         fill="#ffffff"
         id="rect8-3" /><rect
         width="1.5"
         height="1"
         x="3"
         y="3"
         fill="#ffffff"
         id="rect9-9" /><rect
         width="1"
         height="1.5"
         x="3"
         y="3"
         fill="#ffffff"
         id="rect10-19" /><rect
         width="1"
         height="1"
         x="4"
         y="3"
         fill="#ffffff"
         id="rect11-6" /><rect
         width="1"
         height="1"
         x="3"
         y="4"
         fill="#ffffff"
         id="rect12-93" /></g><g
       style="shape-rendering:crispEdges"
       id="g9"
       transform="matrix(9.1666663,0,0,9.1666663,144.38603,146.53969)"><rect
         x="0"
         y="0"
         width="6"
         height="6"
         fill="#000000"
         id="rect1-3" /><rect
         width="1.5"
         height="1"
         x="1"
         y="1"
         fill="#ffffff"
         id="rect2-80" /><rect
         width="1"
         height="1.5"
         x="1"
         y="1"
         fill="#ffffff"
         id="rect3-56" /><rect
         width="1.5"
         height="1"
         x="2"
         y="1"
         fill="#ffffff"
         id="rect4-64" /><rect
         width="1"
         height="1.5"
         x="2"
         y="1"
         fill="#ffffff"
         id="rect5-00" /><rect
         width="1.5"
         height="1"
         x="3"
         y="1"
         fill="#ffffff"
         id="rect6-4" /><rect
         width="1"
         height="1.5"
         x="3"
         y="1"
         fill="#ffffff"
         id="rect7-6" /><rect
         width="1"
         height="1"
         x="4"
         y="1"
         fill="#ffffff"
         id="rect8-26" /><rect
         width="1.5"
         height="1"
         x="1"
         y="2"
         fill="#ffffff"
         id="rect9-7" /><rect
         width="1"
         height="1.5"
         x="1"
         y="2"
         fill="#ffffff"
         id="rect10-5" /><rect
         width="1.5"
         height="1"
         x="2"
         y="2"
         fill="#ffffff"
         id="rect11-69" /><rect
         width="1"
         height="1.5"
         x="2"
         y="2"
         fill="#ffffff"
         id="rect12-87" /><rect
         width="1"
         height="1"
         x="3"
         y="2"
         fill="#ffffff"
         id="rect13-2" /><rect
         width="1.5"
         height="1"
         x="1"
         y="3"
         fill="#ffffff"
         id="rect14-8" /><rect
         width="1"
         height="1.5"
         x="1"
         y="3"
         fill="#ffffff"
         id="rect15-2" /><rect
         width="1"
         height="1"
         x="2"
         y="3"
         fill="#ffffff"
         id="rect16" /><rect
         width="1"
         height="1"
         x="4"
         y="3"
         fill="#ffffff"
         id="rect17" /><rect
         width="1"
         height="1"
         x="1"
         y="4"
         fill="#ffffff"
         id="rect18" /><rect
         width="1"
         height="1"
         x="3"
         y="4"
         fill="#ffffff"
         id="rect19" /></g><g
       style="shape-rendering:crispEdges"
       id="g10"
       transform="matrix(9.1666663,0,0,9.1666663,14.386028,211.53969)"><rect
         x="0"
         y="0"
         width="6"
         height="6"
         fill="#000000"
         id="rect1-99" /><rect
         width="1.5"
         height="1"
         x="1"
         y="1"
         fill="#ffffff"
         id="rect2-60" /><rect
         width="1"
         height="1.5"
         x="1"
         y="1"
         fill="#ffffff"
         id="rect3-27" /><rect
         width="1"
         height="1"
         x="2"
         y="1"
         fill="#ffffff"
         id="rect4-61" /><rect
         width="1"
         height="1.5"
         x="2"
         y="1"
         fill="#ffffff"
         id="rect5-32" /><rect
         width="1.5"
         height="1"
         x="1"
         y="2"
         fill="#ffffff"
         id="rect6-1" /><rect
         width="1.5"
         height="1"
         x="2"
         y="2"
         fill="#ffffff"
         id="rect7-5" /><rect
         width="1"
         height="1.5"
         x="2"
         y="2"
         fill="#ffffff"
         id="rect8-9" /><rect
         width="1.5"
         height="1"
         x="3"
         y="2"
         fill="#ffffff"
         id="rect9-91" /><rect
         width="1"
         height="1"
         x="4"
         y="2"
         fill="#ffffff"
         id="rect10-49" /><rect
         width="1"
         height="1.5"
         x="4"
         y="2"
         fill="#ffffff"
         id="rect11-107" /><rect
         width="1"
         height="1"
         x="2"
         y="3"
         fill="#ffffff"
         id="rect12-5" /><rect
         width="1"
         height="1.5"
         x="2"
         y="3"
         fill="#ffffff"
         id="rect13-8" /><rect
         width="1"
         height="1"
         x="4"
         y="3"
         fill="#ffffff"
         id="rect14-7" /><rect
         width="1.5"
         height="1"
         x="2"
         y="4"
         fill="#ffffff"
         id="rect15-0" /><rect
         width="1"
         height="1"
         x="3"
         y="4"
         fill="#ffffff"
         id="rect16-4" /></g><g
       style="shape-rendering:crispEdges"
       id="g11"
       transform="matrix(9.1666663,0,0,9.1666663,79.386025,211.53969)"><rect
         x="0"
         y="0"
         width="6"
         height="6"
         fill="#000000"
         id="rect1-80" /><rect
         width="1.5"
         height="1"
         x="1"
         y="1"
         fill="#ffffff"
         id="rect2-4" /><rect
         width="1"
         height="1.5"
         x="1"
         y="1"
         fill="#ffffff"
         id="rect3-29" /><rect
         width="1.5"
         height="1"
         x="2"
         y="1"
         fill="#ffffff"
         id="rect4-610" /><rect
         width="1.5"
         height="1"
         x="3"
         y="1"
         fill="#ffffff"
         id="rect5-42" /><rect
         width="1"
         height="1"
         x="4"
         y="1"
         fill="#ffffff"
         id="rect6-22" /><rect
         width="1"
         height="1.5"
         x="4"
         y="1"
         fill="#ffffff"
         id="rect7-05" /><rect
         width="1"
         height="1"
         x="1"
         y="2"
         fill="#ffffff"
         id="rect8-52" /><rect
         width="1"
         height="1.5"
         x="1"
         y="2"
         fill="#ffffff"
         id="rect9-90" /><rect
         width="1"
         height="1"
         x="4"
         y="2"
         fill="#ffffff"
         id="rect10-2" /><rect
         width="1"
         height="1.5"
         x="4"
         y="2"
         fill="#ffffff"
         id="rect11-83" /><rect
         width="1"
         height="1"
         x="1"
         y="3"
         fill="#ffffff"
         id="rect12-80" /><rect
         width="1"
         height="1"
         x="4"
         y="3"
         fill="#ffffff"
         id="rect13-4" /><rect
         width="1"
         height="1.5"
         x="4"
         y="3"
         fill="#ffffff"
         id="rect14-0" /><rect
         width="1"
         height="1"
         x="4"
         y="4"
         fill="#ffffff"
         id="rect15-9" /></g><g
       style="shape-rendering:crispEdges"
       id="g12"
       transform="matrix(9.1666663,0,0,9.1666663,144.38603,211.53969)"><rect
         x="0"
         y="0"
         width="6"
         height="6"
         fill="#000000"
         id="rect1-19" /><rect
         width="1"
         height="1"
         x="4"
         y="1"
         fill="#ffffff"
         id="rect2-62" /><rect
         width="1"
         height="1.5"
         x="4"
         y="1"
         fill="#ffffff"
         id="rect3-54" /><rect
         width="1"
         height="1"
         x="4"
         y="2"
         fill="#ffffff"
         id="rect4-49" /><rect
         width="1"
         height="1"
         x="1"
         y="3"
         fill="#ffffff"
         id="rect5-9" /><rect
         width="1"
         height="1"
         x="3"
         y="3"
         fill="#ffffff"
         id="rect6-36" /><rect
         width="1"
         height="1.5"
         x="3"
         y="3"
         fill="#ffffff"
         id="rect7-050" /><rect
         width="1.5"
         height="1"
         x="2"
         y="4"
         fill="#ffffff"
         id="rect8-29" /><rect
         width="1.5"
         height="1"
         x="3"
         y="4"
         fill="#ffffff"
         id="rect9-43" /><rect
         width="1"
         height="1"
         x="4"
         y="4"
         fill="#ffffff"
         id="rect10-51" /></g></g></svg>
